<svg version="1.1" viewBox="0.0 0.0 188.24146981627297 100.0" fill="none" stroke="none" stroke-linecap="square" stroke-miterlimit="10" xmlns:xlink="http://www.w3.org/1999/xlink" xmlns="http://www.w3.org/2000/svg"><clipPath id="p.0"><path d="m0 0l188.24147 0l0 100.0l-188.24147 0l0 -100.0z" clip-rule="nonzero"/></clipPath><g clip-path="url(#p.0)"><path fill="#000000" fill-opacity="0.0" d="m0 0l188.24147 0l0 100.0l-188.24147 0z" fill-rule="evenodd"/><path fill="#d9d9d9" d="m2.0 27.77696l0 0c0 -2.3497791 1.904872 -4.25465 4.2546506 -4.25465l173.38046 0c1.1284027 0 2.2105865 0.44825554 3.008484 1.2461586c0.7979126 0.79790115 1.24617 1.8800888 1.24617 3.0084915l0 44.435577c0 2.3497772 -1.9048767 4.254654 -4.254654 4.254654l-173.38046 0c-2.3497787 0 -4.2546506 -1.9048767 -4.2546506 -4.254654z" fill-rule="evenodd"/><g filter="url(#shadowFilter-p.1)"><use xlink:href="#p.1" transform="matrix(1.0 0.0 0.0 1.0 0.0 9.0)"/></g><defs><filter id="shadowFilter-p.1" filterUnits="userSpaceOnUse"><feGaussianBlur in="SourceAlpha" stdDeviation="6.0" result="blur"/><feComponentTransfer in="blur" color-interpolation-filters="sRGB"><feFuncR type="linear" slope="0" intercept="0.0"/><feFuncG type="linear" slope="0" intercept="0.0"/><feFuncB type="linear" slope="0" intercept="0.0"/><feFuncA type="linear" slope="0.18" intercept="0"/></feComponentTransfer></filter></defs><g id="p.1"><path fill="#000000" fill-opacity="0.0" d="m0 8.0l185.82677 0l0 84.031494l-185.82677 0z" fill-rule="evenodd"/><path fill="#000000" d="m19.007263 68.62187q-1.546875 0 -2.375 -0.84375q-0.828125 -0.859375 -0.828125 -2.453125l0 -31.734375q0 -1.65625 0.828125 -2.53125q0.828125 -0.875 2.15625 -0.875q1.21875 0 1.828125 0.453125q0.625 0.453125 1.484375 1.515625l20.421875 26.5l-1.390625 0l0 -25.21875q0 -1.546875 0.828125 -2.390625q0.828125 -0.859375 2.375 -0.859375q1.546875 0 2.34375 0.859375q0.796875 0.84375 0.796875 2.390625l0 32.0q0 1.484375 -0.75 2.34375q-0.734375 0.84375 -2.015625 0.84375q-1.234375 0 -1.953125 -0.46875q-0.71875 -0.484375 -1.578125 -1.546875l-20.359375 -26.515625l1.328125 0l0 25.234375q0 1.59375 -0.796875 2.453125q-0.796875 0.84375 -2.34375 0.84375zm124.678925 0q-1.34375 0 -2.203125 -0.71875q-0.84375 -0.71875 -0.984375 -1.8125q-0.125 -1.09375 0.734375 -2.203125l12.203125 -16.265625l0 2.921875l-11.625 -15.5625q-0.84375 -1.171875 -0.75 -2.265625q0.109375 -1.09375 0.96875 -1.8125q0.859375 -0.71875 2.125 -0.71875q1.078125 0 1.890625 0.5q0.828125 0.5 1.6875 1.671875l9.59375 13.234375l-2.171875 0l9.53125 -13.234375q0.859375 -1.171875 1.6875 -1.671875q0.828125 -0.5 1.953125 -0.5q1.328125 0 2.171875 0.6875q0.859375 0.6875 0.96875 1.78125q0.109375 1.09375 -0.796875 2.328125l-11.625 15.5625l0 -2.921875l12.15625 16.265625q0.84375 1.109375 0.734375 2.203125q-0.09375 1.09375 -0.953125 1.8125q-0.84375 0.71875 -2.234375 0.71875q-1.015625 0 -1.84375 -0.53125q-0.828125 -0.53125 -1.734375 -1.703125l-10.125 -13.859375l2.34375 0l-10.078125 13.859375q-0.859375 1.171875 -1.71875 1.703125q-0.84375 0.53125 -1.90625 0.53125z" fill-rule="nonzero"/></g><g filter="url(#shadowFilter-p.2)"><use xlink:href="#p.2" transform="matrix(1.0 0.0 0.0 1.0 0.0 2.0)"/></g><defs><filter id="shadowFilter-p.2" filterUnits="userSpaceOnUse"><feGaussianBlur in="SourceAlpha" stdDeviation="1.5" result="blur"/><feComponentTransfer in="blur" color-interpolation-filters="sRGB"><feFuncR type="linear" slope="0" intercept="0.0"/><feFuncG type="linear" slope="0" intercept="0.0"/><feFuncB type="linear" slope="0" intercept="0.0"/><feFuncA type="linear" slope="0.5" intercept="0"/></feComponentTransfer></filter></defs><g id="p.2"><path fill="#434343" d="m55.44882 50.0l0 0c0 -19.95183 16.773457 -36.125984 37.464565 -36.125984l0 0c9.936226 0 19.465485 3.80612 26.491455 10.581057c7.025963 6.774935 10.973122 15.96372 10.973122 25.544928l0 0c0 19.951828 -16.773468 36.125984 -37.464577 36.125984l0 0c-20.691109 0 -37.464565 -16.174156 -37.464565 -36.125984z" fill-rule="evenodd"/><path stroke="#434343" stroke-width="1.0" stroke-linejoin="round" stroke-linecap="butt" d="m55.44882 50.0l0 0c0 -19.95183 16.773457 -36.125984 37.464565 -36.125984l0 0c9.936226 0 19.465485 3.80612 26.491455 10.581057c7.025963 6.774935 10.973122 15.96372 10.973122 25.544928l0 0c0 19.951828 -16.773468 36.125984 -37.464577 36.125984l0 0c-20.691109 0 -37.464565 -16.174156 -37.464565 -36.125984z" fill-rule="evenodd"/></g><path fill="#999999" d="m94.739876 24.411911l0 51.1811l-3.5905533 0l0 -51.1811z" fill-rule="evenodd"/><path stroke="#666666" stroke-width="1.0" stroke-linejoin="round" stroke-linecap="butt" d="m94.739876 24.411911l0 51.1811l-3.5905533 0l0 -51.1811z" fill-rule="evenodd"/><path fill="#999999" d="m102.41911 24.411911l0 51.1811l-3.5905533 0l0 -51.1811z" fill-rule="evenodd"/><path stroke="#666666" stroke-width="1.0" stroke-linejoin="round" stroke-linecap="butt" d="m102.41911 24.411911l0 51.1811l-3.5905533 0l0 -51.1811z" fill-rule="evenodd"/><path fill="#999999" d="m87.06064 24.411911l0 51.1811l-3.5905533 0l0 -51.1811z" fill-rule="evenodd"/><path stroke="#666666" stroke-width="1.0" stroke-linejoin="round" stroke-linecap="butt" d="m87.06064 24.411911l0 51.1811l-3.5905533 0l0 -51.1811z" fill-rule="evenodd"/><path fill="#999999" d="m118.510735 51.810818l-51.1811 0l0 -3.5905533l51.1811 0z" fill-rule="evenodd"/><path stroke="#666666" stroke-width="1.0" stroke-linejoin="round" stroke-linecap="butt" d="m118.510735 51.810818l-51.1811 0l0 -3.5905533l51.1811 0z" fill-rule="evenodd"/><path fill="#999999" d="m118.510735 59.490067l-51.1811 0l0 -3.5905495l51.1811 0z" fill-rule="evenodd"/><path stroke="#666666" stroke-width="1.0" stroke-linejoin="round" stroke-linecap="butt" d="m118.510735 59.490067l-51.1811 0l0 -3.5905495l51.1811 0z" fill-rule="evenodd"/><path fill="#999999" d="m118.510735 44.131565l-51.1811 0l0 -3.5905533l51.1811 0z" fill-rule="evenodd"/><path stroke="#666666" stroke-width="1.0" stroke-linejoin="round" stroke-linecap="butt" d="m118.510735 44.131565l-51.1811 0l0 -3.5905533l51.1811 0z" fill-rule="evenodd"/><path fill="#b7b7b7" d="m76.16913 37.316402l0 0c0 -2.25132 1.8250504 -4.076374 4.0763702 -4.076374l25.359062 0c1.0811234 0 2.1179657 0.42947388 2.882431 1.193943c0.76447296 0.76446915 1.1939468 1.8013115 1.1939468 2.882431l0 25.359058c0 2.25132 -1.825058 4.076378 -4.076378 4.076378l-25.359062 0c-2.25132 0 -4.0763702 -1.825058 -4.0763702 -4.076378z" fill-rule="evenodd"/><path stroke="#666666" stroke-width="1.0" stroke-linejoin="round" stroke-linecap="butt" d="m76.16913 37.316402l0 0c0 -2.25132 1.8250504 -4.076374 4.0763702 -4.076374l25.359062 0c1.0811234 0 2.1179657 0.42947388 2.882431 1.193943c0.76447296 0.76446915 1.1939468 1.8013115 1.1939468 2.882431l0 25.359058c0 2.25132 -1.825058 4.076378 -4.076378 4.076378l-25.359062 0c-2.25132 0 -4.0763702 -1.825058 -4.0763702 -4.076378z" fill-rule="evenodd"/></g></svg>