<svg version="1.1" viewBox="0.0 0.0 100.0 100.0" fill="none" stroke="none" stroke-linecap="square" stroke-miterlimit="10" xmlns:xlink="http://www.w3.org/1999/xlink" xmlns="http://www.w3.org/2000/svg"><clipPath id="p.0"><path d="m0 0l100.0 0l0 100.0l-100.0 0l0 -100.0z" clip-rule="nonzero"/></clipPath><g clip-path="url(#p.0)"><path fill="#000000" fill-opacity="0.0" d="m0 0l100.0 0l0 100.0l-100.0 0z" fill-rule="evenodd"/><g filter="url(#shadowFilter-p.1)"><use xlink:href="#p.1" transform="matrix(1.0 0.0 0.0 1.0 0.694658530183727 0.7193398950131218)"/></g><defs><filter id="shadowFilter-p.1" filterUnits="userSpaceOnUse"><feGaussianBlur in="SourceAlpha" stdDeviation="0.5" result="blur"/><feComponentTransfer in="blur" color-interpolation-filters="sRGB"><feFuncR type="linear" slope="0" intercept="0.0"/><feFuncG type="linear" slope="0" intercept="0.0"/><feFuncB type="linear" slope="0" intercept="0.0"/><feFuncA type="linear" slope="0.41" intercept="0"/></feComponentTransfer></filter></defs><g id="p.1"><path fill="#000000" fill-opacity="0.0" d="m0 0l55.496063 0l0 33.92126l-55.496063 0z" fill-rule="evenodd"/><path fill="#000000" d="m24.138588 20.52l0 -8.53125l-1.65625 0l0 5.484375l-2.359375 -5.484375l-1.65625 0l0 8.53125l1.65625 0l0 -5.5l2.375 5.5l1.640625 0z" fill-rule="nonzero"/><path fill="#000000" d="m29.90226 18.004375l0 -1.59375q0 -0.640625 -0.15625 -1.125q-0.140625 -0.5 -0.421875 -0.828125q-0.28125 -0.328125 -0.6875 -0.5q-0.390625 -0.171875 -0.890625 -0.171875q-0.5 0 -0.90625 0.171875q-0.390625 0.171875 -0.671875 0.5q-0.28125 0.328125 -0.4375 0.828125q-0.140625 0.484375 -0.140625 1.125l0 1.59375q0 0.640625 0.15625 1.125q0.15625 0.484375 0.4375 0.8125q0.265625 0.34375 0.671875 0.515625q0.40625 0.15625 0.90625 0.15625q0.5 0 0.890625 -0.15625q0.40625 -0.171875 0.6875 -0.515625q0.28125 -0.328125 0.421875 -0.8125q0.140625 -0.484375 0.140625 -1.125zm-3.03125 -0.546875q0 -0.15625 0 -0.21875q0 -0.078125 0 -0.296875l0 -0.734375q0 -0.359375 0.046875 -0.625q0.0625 -0.28125 0.1875 -0.453125q0.109375 -0.15625 0.265625 -0.234375q0.15625 -0.078125 0.375 -0.078125q0.1875 0 0.34375 0.0625q0.15625 0.0625 0.25 0.1875q0.140625 0.15625 0.203125 0.421875q0.078125 0.265625 0.09375 0.640625l-1.765625 1.328125zm1.765625 0.734375q0 0.359375 -0.0625 0.640625q-0.046875 0.265625 -0.171875 0.4375q-0.109375 0.171875 -0.28125 0.25q-0.15625 0.078125 -0.359375 0.078125q-0.234375 0 -0.40625 -0.09375q-0.171875 -0.09375 -0.28125 -0.28125q-0.09375 -0.15625 -0.15625 -0.375q-0.046875 -0.234375 -0.046875 -0.546875l1.765625 -1.3125q0 0.140625 0 0.21875q0 0.0625 0 0.203125l0 0.78125z" fill-rule="nonzero"/><path fill="#000000" d="m34.20318 15.05125l-1.5 -3.0625l-1.921875 0l2.40625 4.234375l-2.46875 4.296875l1.953125 0l1.5625 -3.109375l1.5625 3.109375l1.921875 0l-2.46875 -4.296875l2.40625 -4.234375l-1.9375 0l-1.515625 3.0625z" fill-rule="nonzero"/></g></g></svg>